**ABCDEFGHIJKLMNOPQRSTUVWXYZabcdefghijklmnopqrstuvwxyz**************************
**PARASOLID !"#$%&'()*+,-./:;<=>?@[\]^_`{|}~0123456789**************************
**PART1;
MC=AMD64;
MC_MODEL=Intel64 Family 6 Model 76 Stepping 4, GenuineIntel;
MC_ID=unknown;
OS=Windows_NT;
OS_RELEASE=unknown;
FRU=Parasolid Version 27.0, build 207,  1-23-2015;
APPL=SOLIDWORKS 2015-2015313;
SITE=;
USER=unknown;
FORMAT=text;
GUISE=transmit;
KEY=makeProjectedPlanarWire;
FILE=makeProjectedPlanarWire.x_t;
DATE=Thu Aug 23 15:20:24 2018;
**PART2;
SCH=SCH_2700207_26105;
USFLD_SIZE=0;
**PART3;
**END_OF_HEADER*****************************************************************
T51 : TRANSMIT FILE created by modeller version 270020723 SCH_2700207_26105_1300
6196 0 12 30 CCCCCCCCCCCCCDI5 owner1040 0 CCCCCCCCCA13 boundary_mesh1006 0 A16 i
ndex_map_offset0 0 1 dA9 index_map82 0 A17 node_id_index_map82 0 A20 schema_embe
dding_map82 0 A5 child12 0 A14 lowest_node_id0 0 1 dZ1 780 0 0 0 0 0 0 1e3 1e-8
 0 2 0 1 0 3 1 3 4 5 6 7 8 9 0 0 0 0 0 0 0 13 255 3 137 0 1 0 10 0 0 7 10 50 255
 4 2 0 10 0 0 0 +0 .165 0 0 1 0 0 0 1 31 255 5 84 0 8 11 0 0 +.122 .165 -.122 0
 1 0 0 0 1 .012 29 255 6 135 0 9 12 0 .122 .165 -.134 19 8 CCCCCCCA5 owner12 0 Z
7 136 0 1 0 0 3 V0 16 255 8 83 0 ?13 0 14 5 0 0 1 18 255 9 133 0 15 0 16 6 ?1 17
 255 15 0 0 0 0 9 17 18 0 13 +18 16 130 0 19 9 20 12 ?1 17 19 0 21 13 22 16 23 1
4 0 24 -18 20 127 0 22 16 25 26 ?1 29 12 132 0 16 26 6 .134 .165 -.122 29 26 129
 0 20 27 12 .134 .165 .122 29 27 126 0 25 28 26 .122 .165 .134 18 25 124 0 29 20
 30 27 ?1 29 28 123 0 30 31 27 -.122 .165 .134 18 30 121 0 32 25 33 28 ?1 29 31
 120 0 33 34 28 -.134 .165 .122 18 33 118 0 35 30 36 31 ?1 29 34 117 0 36 37 31
 -.134 .165 -.122 18 36 115 0 38 33 39 34 ?1 29 37 114 0 39 40 34 -.122 .165 -.1
34 18 39 112 0 17 36 41 37 ?1 29 40 111 0 41 42 37 -.128 .165 -.122 18 41 109 0
 43 39 44 40 ?1 29 42 108 0 44 45 40 -.128 .165 .122 18 44 106 0 46 41 47 42 ?1
 29 45 105 0 47 48 42 -.122 .165 .128 18 47 103 0 49 44 50 45 ?1 29 48 102 0 50
 51 45 .122 .165 .128 18 50 100 0 52 47 53 48 ?1 29 51 99 0 53 54 48 .128 .165 .
122 18 53 97 0 55 50 56 51 ?1 29 54 96 0 56 57 51 .128 .165 -.122 18 56 94 0 58
 53 59 54 ?1 29 57 93 0 59 60 54 .122 .165 -.128 18 59 91 0 61 56 62 57 ?1 29 60
 90 0 62 0 57 -.122 .165 -.128 18 62 88 0 63 59 0 60 ?1 17 63 0 64 61 65 62 43 6
6 0 67 -15 255 64 6 0 63 10 21 17 61 0 64 58 63 59 67 68 0 69 +17 65 0 64 63 46
 41 70 71 0 0 -17 43 0 0 0 0 41 63 66 0 65 +16 66 8 0 ?43 68 0 72 0 0 1 17 67 0
 0 0 0 62 61 68 0 0 -16 68 13 0 ?61 73 66 74 0 0 1 16 73 18 0 ?69 75 68 76 0 0 1
 30 255 74 14 0 68 72 76 0 +0 .165 -.128 1 0 0 31 72 9 0 66 0 74 0 +-.122 .165 -
.122 0 1 0 0 0 1 .006 31 76 19 0 73 74 77 0 +.122 .165 -.122 0 1 0 0 0 1 .006 30
 77 24 0 75 76 78 0 +.128 .165 0 0 0 1 16 75 23 0 ?55 79 73 77 0 0 1 31 78 29 0
 79 77 80 0 +.122 .165 .122 0 1 0 0 0 1 .006 16 79 28 0 ?81 82 75 78 0 0 1 30 80
 34 0 82 78 83 0 +0 .165 .128 1 0 0 16 82 33 0 ?84 85 79 80 0 0 1 31 83 39 0 85
 80 86 0 +-.122 .165 .122 0 1 0 0 0 1 .006 16 85 38 0 ?87 71 82 83 0 0 1 30 86 4
4 0 71 83 88 0 +-.128 .165 0 0 0 1 16 71 43 0 ?70 18 85 86 0 0 1 30 88 49 0 18 8
6 89 0 +0 .165 -.134 1 0 0 16 18 48 0 ?15 90 71 88 0 0 1 31 89 54 0 90 88 91 0 +
-.122 .165 -.122 0 1 0 0 0 1 .012 16 90 53 0 ?38 92 18 89 0 0 1 30 91 59 0 92 89
 93 0 +-.134 .165 0 0 0 1 16 92 58 0 ?35 94 90 91 0 0 1 31 93 64 0 94 91 95 0 +-
.122 .165 .122 0 1 0 0 0 1 .012 16 94 63 0 ?32 96 92 93 0 0 1 30 95 69 0 96 93 9
7 0 +0 .165 .134 1 0 0 16 96 68 0 ?29 98 94 95 0 0 1 31 97 74 0 98 95 11 0 +.122
 .165 .122 0 1 0 0 0 1 .012 16 98 73 0 ?22 14 96 97 0 0 1 30 11 79 0 14 97 5 0 +
.134 .165 0 0 0 1 16 14 78 0 ?23 8 98 11 0 0 1 17 23 0 0 0 0 20 19 14 0 0 +17 22
 0 21 19 29 20 99 98 0 23 +15 21 7 0 17 10 0 17 29 0 21 22 32 25 100 96 0 99 +17
 99 0 0 0 0 25 22 98 0 0 -17 32 0 21 29 35 30 101 94 0 100 +17 100 0 0 0 0 30 29
 96 0 0 -17 35 0 21 32 38 33 102 92 0 101 +17 101 0 0 0 0 33 32 94 0 0 -17 38 0
 21 35 17 36 103 90 0 102 +17 102 0 0 0 0 36 35 92 0 0 -17 17 0 21 38 13 39 15 1
8 0 103 -17 103 0 0 0 0 39 38 90 0 0 -17 13 0 21 17 19 9 24 8 0 0 +17 24 0 0 0 0
 16 13 8 0 0 -14 255 10 1 0 ?0 0 64 3 4 +0 0 0 0 3 17 70 0 0 0 0 44 65 71 0 0 +1
7 87 0 0 0 0 47 46 85 0 0 +17 46 0 64 65 49 44 87 85 0 70 -17 49 0 64 46 52 47 8
4 82 0 87 -17 52 0 64 49 55 50 81 79 0 84 -17 84 0 0 0 0 50 49 82 0 0 +17 55 0 6
4 52 58 53 104 75 0 81 +17 81 0 0 0 0 53 52 79 0 0 +17 58 0 64 55 61 56 69 73 0
 104 -17 104 0 0 0 0 56 55 75 0 0 -17 69 0 0 0 0 59 58 73 0 0 +1 0 
