<?xml version="1.0" encoding="UTF-8" standalone="no"?>
<!-- Created with Inkscape (http://www.inkscape.org/) -->

<svg
   xmlns:dc="http://purl.org/dc/elements/1.1/"
   xmlns:cc="http://creativecommons.org/ns#"
   xmlns:rdf="http://www.w3.org/1999/02/22-rdf-syntax-ns#"
   xmlns:svg="http://www.w3.org/2000/svg"
   xmlns="http://www.w3.org/2000/svg"
   xmlns:sodipodi="http://sodipodi.sourceforge.net/DTD/sodipodi-0.dtd"
   xmlns:inkscape="http://www.inkscape.org/namespaces/inkscape"
   version="1.1"
   id="svg4747"
   xml:space="preserve"
   width="560.65997"
   height="559.38"
   viewBox="0 0 560.65997 559.38"
   sodipodi:docname="Diagrama_General.svg"
   inkscape:version="0.92.3 (2405546, 2018-03-11)"><metadata
     id="metadata4753"><rdf:RDF><cc:Work
         rdf:about=""><dc:format>image/svg+xml</dc:format><dc:type
           rdf:resource="http://purl.org/dc/dcmitype/StillImage" /><dc:title></dc:title></cc:Work></rdf:RDF></metadata><defs
     id="defs4751" /><sodipodi:namedview
     pagecolor="#ffffff"
     bordercolor="#666666"
     borderopacity="1"
     objecttolerance="10"
     gridtolerance="10"
     guidetolerance="10"
     inkscape:pageopacity="0"
     inkscape:pageshadow="2"
     inkscape:window-width="1366"
     inkscape:window-height="705"
     id="namedview4749"
     showgrid="false"
     inkscape:zoom="0.50757576"
     inkscape:cx="423.01288"
     inkscape:cy="68.787293"
     inkscape:window-x="-8"
     inkscape:window-y="-8"
     inkscape:window-maximized="1"
     inkscape:current-layer="g4755"
     fit-margin-top="0"
     fit-margin-left="0"
     fit-margin-right="0"
     fit-margin-bottom="0" /><g
     id="g4755"
     inkscape:groupmode="layer"
     inkscape:label="Diagrama_General"
     transform="translate(0.25,0.09)"><g
       id="g4757"
       transform="rotate(-90,176.03759,-46.109112)"><path
         d="m 0,0 h -9.76 v -3.04 h -9.76 V 0 39.360001 h 9.76 V 9.76 H 0"
         style="fill:none;stroke:#000000;stroke-width:0.95999998;stroke-linecap:round;stroke-linejoin:round;stroke-miterlimit:10;stroke-dasharray:none;stroke-opacity:1"
         id="path4759"
         inkscape:connector-curvature="0" /></g><g
       id="g4761"
       transform="rotate(-90,289.79758,271.65088)"><path
         d="M 421.76001,243.36 412,236.48 421.76001,229.60001 412,222.72 421.76001,215.84 412,208.96001 421.76001,202.08"
         style="fill:none;stroke:#000000;stroke-width:0.95999998;stroke-linecap:round;stroke-linejoin:round;stroke-miterlimit:10;stroke-dasharray:none;stroke-opacity:1"
         id="path4763"
         inkscape:connector-curvature="0" /></g><g
       id="g4765"
       transform="rotate(-90,289.79758,271.65088)"><path
         d="m 431.51999,204 29.28,-36.8 h 69.11999 v 41.76001"
         style="fill:none;stroke:#000000;stroke-width:0.95999998;stroke-linecap:round;stroke-linejoin:round;stroke-miterlimit:10;stroke-dasharray:none;stroke-opacity:1"
         id="path4767"
         inkscape:connector-curvature="0" /></g><g
       id="g4769"
       transform="rotate(-90,289.79758,271.65088)"><path
         d="m 431.51999,213.75999 29.28,36.80001 h 69.11999 v -41.59999"
         style="fill:none;stroke:#000000;stroke-width:0.95999998;stroke-linecap:round;stroke-linejoin:round;stroke-miterlimit:10;stroke-dasharray:none;stroke-opacity:1"
         id="path4771"
         inkscape:connector-curvature="0" /></g><g
       id="g4773"
       transform="matrix(0.041992,0,0,0.041992,18.1467,561.44847)"><text
         transform="translate(4233.1201,-11602.1)"
         style="font-variant:normal;font-weight:normal;font-size:327.67999268px;font-family:F1;-inkscape-font-specification:F1;writing-mode:lr-tb;fill:#000000;fill-opacity:1;fill-rule:nonzero;stroke:none"
         id="text4777"><tspan
           x="0 235.9296 491.51999 727.44958 963.37915 1186.2015 1418.8544"
           y="0"
           sodipodi:role="line"
           id="tspan4775">CONCEN-</tspan></text>
</g><g
       id="g4779"
       transform="matrix(0.041992,0,0,0.041992,18.1467,561.44847)"><text
         transform="translate(4431.3599,-11205.9)"
         style="font-variant:normal;font-weight:normal;font-size:327.67999268px;font-family:F1;-inkscape-font-specification:F1;writing-mode:lr-tb;fill:#000000;fill-opacity:1;fill-rule:nonzero;stroke:none"
         id="text4783"><tspan
           x="0 203.16159 439.09119 658.63678 891.28955"
           y="0"
           sodipodi:role="line"
           id="tspan4781">TRADO</tspan></text>
</g><g
       id="g4785"
       transform="rotate(-90,226.99759,-97.06912)"><path
         d="m 0,0 h -9.76 v -2.88 h -9.76 V 0 39.360001 h 9.76 V 9.92 H 0"
         style="fill:none;stroke:#000000;stroke-width:0.95999998;stroke-linecap:round;stroke-linejoin:round;stroke-miterlimit:10;stroke-dasharray:none;stroke-opacity:1"
         id="path4787"
         inkscape:connector-curvature="0" /></g><g
       id="g4789"
       transform="rotate(-90,289.79758,271.65088)"><path
         d="M 421.76001,345.28 412,338.39999 l 9.76001,-6.88 -9.76001,-6.87998 9.76001,-6.88 L 412,310.88 421.76001,304"
         style="fill:none;stroke:#000000;stroke-width:0.95999998;stroke-linecap:round;stroke-linejoin:round;stroke-miterlimit:10;stroke-dasharray:none;stroke-opacity:1"
         id="path4791"
         inkscape:connector-curvature="0" /></g><g
       id="g4793"
       transform="rotate(-90,289.79758,271.65088)"><path
         d="m 431.51999,305.92001 29.28,-36.80001 h 69.11999 v 41.76"
         style="fill:none;stroke:#000000;stroke-width:0.95999998;stroke-linecap:round;stroke-linejoin:round;stroke-miterlimit:10;stroke-dasharray:none;stroke-opacity:1"
         id="path4795"
         inkscape:connector-curvature="0" /></g><g
       id="g4797"
       transform="rotate(-90,289.79758,271.65088)"><path
         d="m 431.51999,315.67999 29.28,36.80002 h 69.11999 V 310.88"
         style="fill:none;stroke:#000000;stroke-width:0.95999998;stroke-linecap:round;stroke-linejoin:round;stroke-miterlimit:10;stroke-dasharray:none;stroke-opacity:1"
         id="path4799"
         inkscape:connector-curvature="0" /></g><g
       id="g4801"
       transform="rotate(-90,289.79758,271.65088)"><path
         d="m 431.51999,102.08 h -9.75998 m 0,9.76 h 9.75998"
         style="fill:none;stroke:#000000;stroke-width:0.95999998;stroke-linecap:round;stroke-linejoin:round;stroke-miterlimit:10;stroke-dasharray:none;stroke-opacity:1"
         id="path4803"
         inkscape:connector-curvature="0" /></g><g
       id="g4805"
       transform="rotate(-90,289.79758,271.65088)"><path
         d="m 431.51999,102.08 29.28,-36.800001 h 69.11999 V 107.04"
         style="fill:none;stroke:#000000;stroke-width:0.95999998;stroke-linecap:round;stroke-linejoin:round;stroke-miterlimit:10;stroke-dasharray:none;stroke-opacity:1"
         id="path4807"
         inkscape:connector-curvature="0" /></g><g
       id="g4809"
       transform="rotate(-90,289.79758,271.65088)"><path
         d="m 431.51999,111.84 29.28,36.8 h 69.11999 v -41.6"
         style="fill:none;stroke:#000000;stroke-width:0.95999998;stroke-linecap:round;stroke-linejoin:round;stroke-miterlimit:10;stroke-dasharray:none;stroke-opacity:1"
         id="path4811"
         inkscape:connector-curvature="0" /></g><g
       id="g4813"
       transform="matrix(0.041992,0,0,0.041992,18.1467,561.44847)"><text
         transform="translate(6667.8398,-11605.9)"
         style="font-variant:normal;font-weight:normal;font-size:327.67999268px;font-family:F1;-inkscape-font-specification:F1;writing-mode:lr-tb;fill:#000000;fill-opacity:1;fill-rule:nonzero;stroke:none"
         id="text4817"><tspan
           x="0 275.25119 367.00159 602.93121 822.47681 1055.1295 1271.3983"
           y="0"
           sodipodi:role="line"
           id="tspan4815">MINERAL</tspan></text>
</g><g
       id="g4819"
       transform="matrix(0.041992,0,0,0.041992,18.1467,561.44847)"><text
         transform="translate(1672.64,-11605.9)"
         style="font-variant:normal;font-weight:normal;font-size:327.67999268px;font-family:F1;-inkscape-font-specification:F1;writing-mode:lr-tb;fill:#000000;fill-opacity:1;fill-rule:nonzero;stroke:none"
         id="text4823"><tspan
           x="0 183.50079 403.04639 625.86877 845.41437 1078.0671 1310.72 1543.3728"
           y="0"
           sodipodi:role="line"
           id="tspan4821">LEVADURA</tspan></text>
</g><g
       id="g4825"
       transform="rotate(-90,289.79758,271.65088)"><path
         d="M 392.64001,130.72 V 152 H 360"
         style="fill:none;stroke:#000000;stroke-width:0.95999998;stroke-linecap:round;stroke-linejoin:round;stroke-miterlimit:10;stroke-dasharray:none;stroke-opacity:1"
         id="path4827"
         inkscape:connector-curvature="0" /></g><g
       id="g4829"
       transform="rotate(-90,289.79758,271.65088)"><path
         d="m 360,130.72 h 32.64001 v -16.16 h -10.24002 v 10.24 h 10.24002"
         style="fill:none;stroke:#000000;stroke-width:0.95999998;stroke-linecap:round;stroke-linejoin:round;stroke-miterlimit:10;stroke-dasharray:none;stroke-opacity:1"
         id="path4831"
         inkscape:connector-curvature="0" /></g><g
       id="g4833"
       transform="rotate(-90,289.79758,271.65088)"><path
         d="m 382.39999,124.8 10.24002,-10.24 m 0,10.24 -10.24002,-10.24"
         style="fill:none;stroke:#000000;stroke-width:0.95999998;stroke-linecap:round;stroke-linejoin:round;stroke-miterlimit:10;stroke-dasharray:none;stroke-opacity:1"
         id="path4835"
         inkscape:connector-curvature="0" /></g><g
       id="g4837"
       transform="rotate(-90,289.79758,271.65088)"><path
         d="m 395.04001,130.72 v -16.16 h -2.4"
         style="fill:none;stroke:#000000;stroke-width:0.95999998;stroke-linecap:round;stroke-linejoin:round;stroke-miterlimit:10;stroke-dasharray:none;stroke-opacity:1"
         id="path4839"
         inkscape:connector-curvature="0" /></g><g
       id="g4841"
       transform="rotate(-90,289.79758,271.65088)"><path
         d="m 392.64001,130.72 h 2.4"
         style="fill:none;stroke:#000000;stroke-width:0.95999998;stroke-linecap:round;stroke-linejoin:round;stroke-miterlimit:10;stroke-dasharray:none;stroke-opacity:1"
         id="path4843"
         inkscape:connector-curvature="0" /></g><g
       id="g4845"
       transform="rotate(-90,233.47759,101.57089)"><path
         d="m 0,0 1.28,0.64 1.28,0.48 1.12,0.64 1.12,0.48 1.28,0.64 0.96,0.64 1.12,0.64 0.96,0.64 0.96,0.8 0.8,0.64 0.8,0.8 0.8,0.8 0.32,0.32 0.32,0.48 0.32,0.48 0.16,0.32 0.32,0.48 0.16,0.48 0.32,0.48 0.16,0.48 0.16,0.48 0.16,0.48 v 0.64 l 0.16,0.48 v 0.64 0.48 1.12 1.279999 L 14.88,18.08 l -0.16,2.4 -0.16,1.28 -0.16,1.280001 V 24.16 25.280001 25.92 26.4 26.879999 L 14.56,27.52 14.72,28 l 0.16,0.48 0.16,0.479999 0.16,0.480002 0.32,0.319999 0.32,0.48 0.32,0.319999 0.32,0.480002 0.319999,0.32 L 17.280001,31.68 17.6,32.16 l 0.48,0.32 0.479999,0.319999 0.480002,0.32 1.119999,0.639999 0.960001,0.480004 1.119999,0.639999 1.28,0.48 1.119999,0.479999 2.400002,1.119999 1.119999,0.48 1.120001,0.479999 1.119999,0.640003 0.960001,0.64 L 31.84,39.52 l 0.48,0.32 0.479999,0.32 0.32,0.32 0.479999,0.319999 0.32,0.32 0.320004,0.479999 0.319999,0.32 0.32,0.480004 0.32,0.319999 0.16,0.48 L 35.52,43.68 l 0.16,0.48 0.16,0.479999 0.16,0.48 0.16,0.479999 v 0.480004 l 0.16,0.479999 V 47.68 v 1.119999 1.119999 l -0.16,1.280003 V 52.32 l -0.16,1.279998 -0.32,1.120003 -0.319999,2.559998 -0.48,2.560001 -0.16,1.279999 v 1.280003 l -0.16,1.119998 v 1.280003 1.279999 1.119995 l 0.16,1.280006 0.16,1.119995 0.32,1.120003 0.319999,1.119995 0.32,1.120003 0.48,1.120003 0.319999,0.959999 0.48,1.120003 0.479999,1.119995 0.640004,0.959999 1.119999,2.080002 1.119999,2.080002 2.400001,4 L 44,88.32 l 1.119999,2.080002 0.479999,0.959999 0.480004,0.959999 0.479999,1.120002 0.48,0.96 0.32,1.119995 0.319999,0.960006 0.32,1.119995 0.32,0.96 0.16,1.120002 0.159999,1.12 0.16,1.12 0.16,1.12 v 1.12 1.12 1.12 1.12 2.24 l -0.16,2.24 -0.16,2.4 -0.159999,2.24 -0.48,4.8 -0.16,2.4 -0.16,2.4 -0.16,2.4 v 1.11999 1.28 l 0.16,2.40001 0.16,2.4 0.16,2.4 0.32,2.24 0.479999,4.8 0.16,2.39999 0.32,2.24001 v 2.24 l 0.16,1.12 v 1.28 1.11999 l -0.16,1.12001 v 1.12 1.11999 l -0.16,0.96001 -0.16,1.11999 -0.16,1.12001 -0.319999,1.12 -0.32,0.96001 -0.16,1.11999 -0.48,0.95999 -0.319999,1.12001 -0.48,0.96 -0.479999,1.12001 -0.640004,0.95999 -0.479999,0.96 L 44.48,172.48 44,173.60001 42.720001,175.52 40,179.52 l -1.279999,1.92 -1.280002,1.92 -0.64,1.12 -0.479999,0.96 -0.48,0.95999 -0.639999,1.12001 -0.32,0.96 -0.479999,1.12001 -0.32,0.95999 -0.320004,1.11999 -0.319999,1.12001 -0.16,1.12 -0.16,1.11999 -0.16,1.12001 v 1.12 1.11999 1.12001 1.12 l 0.48,4.8 v 1.12 1.11999 1.12001 1.12 1.11999 l -0.16,1.12001 -0.16,1.12 -0.16,1.11999 -0.32,1.12001 -0.319999,0.96 -0.48,1.12001 -0.479999,0.95999 -0.480002,1.11999 L 30.4,220.64 29.76,221.60001 29.280001,222.56 28.639999,223.67999 27.84,224.64 27.200001,225.44 26.4,226.39999 24.959999,228.32001 23.360001,230.08 21.76,232 l -1.6,1.75999 -3.200001,3.52001 -3.199999,3.36 -3.2,3.36 -3.04,3.2 -3.2,3.36 -6.24,6.39999"
         style="fill:none;stroke:#000000;stroke-width:0.95999998;stroke-linecap:round;stroke-linejoin:round;stroke-miterlimit:10;stroke-dasharray:none;stroke-opacity:1"
         id="path4847"
         inkscape:connector-curvature="0" /></g><g
       id="g4849"
       transform="rotate(-90,289.79758,271.65088)"><path
         d="M 421.76001,102.08 V 99.199997 H 412 V 102.08 141.44 h 9.76001 v -29.6"
         style="fill:none;stroke:#000000;stroke-width:0.95999998;stroke-linecap:round;stroke-linejoin:round;stroke-miterlimit:10;stroke-dasharray:none;stroke-opacity:1"
         id="path4851"
         inkscape:connector-curvature="0" /></g><g
       id="g4853"
       transform="rotate(-90,289.79758,271.65088)"><path
         d="M 421.76001,141.44 412,134.56 421.76001,127.68 412,120.8 421.76001,113.92 412,107.04 l 9.76001,-6.88"
         style="fill:none;stroke:#000000;stroke-width:0.95999998;stroke-linecap:round;stroke-linejoin:round;stroke-miterlimit:10;stroke-dasharray:none;stroke-opacity:1"
         id="path4855"
         inkscape:connector-curvature="0" /></g><g
       id="g4857"
       transform="rotate(-90,289.79758,271.65088)"><path
         d="M 360,152 V 130.72 L 341.92001,152"
         style="fill:none;stroke:#000000;stroke-width:0.95999998;stroke-linecap:round;stroke-linejoin:round;stroke-miterlimit:10;stroke-dasharray:none;stroke-opacity:1"
         id="path4859"
         inkscape:connector-curvature="0" /></g><g
       id="g4861"
       transform="rotate(-90,289.79758,271.65088)"><path
         d="m 392.64001,152 v 16.16 h -10.24002 v -10.24 h 10.24002"
         style="fill:none;stroke:#000000;stroke-width:0.95999998;stroke-linecap:round;stroke-linejoin:round;stroke-miterlimit:10;stroke-dasharray:none;stroke-opacity:1"
         id="path4863"
         inkscape:connector-curvature="0" /></g><g
       id="g4865"
       transform="rotate(-90,289.79758,271.65088)"><path
         d="m 382.39999,157.92 10.24002,10.24 m 0,-10.24 -10.24002,10.24"
         style="fill:none;stroke:#000000;stroke-width:0.95999998;stroke-linecap:round;stroke-linejoin:round;stroke-miterlimit:10;stroke-dasharray:none;stroke-opacity:1"
         id="path4867"
         inkscape:connector-curvature="0" /></g><g
       id="g4869"
       transform="rotate(-90,289.79758,271.65088)"><path
         d="m 395.04001,152 v 16.16 h -2.4"
         style="fill:none;stroke:#000000;stroke-width:0.95999998;stroke-linecap:round;stroke-linejoin:round;stroke-miterlimit:10;stroke-dasharray:none;stroke-opacity:1"
         id="path4871"
         inkscape:connector-curvature="0" /></g><g
       id="g4873"
       transform="rotate(-90,289.79758,271.65088)"><path
         d="m 392.64001,152 h 2.4"
         style="fill:none;stroke:#000000;stroke-width:0.95999998;stroke-linecap:round;stroke-linejoin:round;stroke-miterlimit:10;stroke-dasharray:none;stroke-opacity:1"
         id="path4875"
         inkscape:connector-curvature="0" /></g><g
       id="g4877"
       transform="rotate(-90,289.79758,271.65088)"><path
         d="m 392.64001,334.56 v 21.28 H 360"
         style="fill:none;stroke:#000000;stroke-width:0.95999998;stroke-linecap:round;stroke-linejoin:round;stroke-miterlimit:10;stroke-dasharray:none;stroke-opacity:1"
         id="path4879"
         inkscape:connector-curvature="0" /></g><g
       id="g4881"
       transform="rotate(-90,289.79758,271.65088)"><path
         d="m 360,334.56 h 32.64001 v -16 h -10.24002 v 10.08001 h 10.24002"
         style="fill:none;stroke:#000000;stroke-width:0.95999998;stroke-linecap:round;stroke-linejoin:round;stroke-miterlimit:10;stroke-dasharray:none;stroke-opacity:1"
         id="path4883"
         inkscape:connector-curvature="0" /></g><g
       id="g4885"
       transform="rotate(-90,289.79758,271.65088)"><path
         d="M 382.39999,328.64001 392.64001,318.56 m 0,10.08001 L 382.39999,318.56"
         style="fill:none;stroke:#000000;stroke-width:0.95999998;stroke-linecap:round;stroke-linejoin:round;stroke-miterlimit:10;stroke-dasharray:none;stroke-opacity:1"
         id="path4887"
         inkscape:connector-curvature="0" /></g><g
       id="g4889"
       transform="rotate(-90,289.79758,271.65088)"><path
         d="m 395.04001,334.56 v -16 h -2.4"
         style="fill:none;stroke:#000000;stroke-width:0.95999998;stroke-linecap:round;stroke-linejoin:round;stroke-miterlimit:10;stroke-dasharray:none;stroke-opacity:1"
         id="path4891"
         inkscape:connector-curvature="0" /></g><g
       id="g4893"
       transform="rotate(-90,289.79758,271.65088)"><path
         d="m 392.64001,334.56 h 2.4"
         style="fill:none;stroke:#000000;stroke-width:0.95999998;stroke-linecap:round;stroke-linejoin:round;stroke-miterlimit:10;stroke-dasharray:none;stroke-opacity:1"
         id="path4895"
         inkscape:connector-curvature="0" /></g><g
       id="g4897"
       transform="rotate(-90,289.79758,271.65088)"><path
         d="m 360,355.84 v -21.28 l -18.07999,21.28"
         style="fill:none;stroke:#000000;stroke-width:0.95999998;stroke-linecap:round;stroke-linejoin:round;stroke-miterlimit:10;stroke-dasharray:none;stroke-opacity:1"
         id="path4899"
         inkscape:connector-curvature="0" /></g><g
       id="g4901"
       transform="rotate(-90,289.79758,271.65088)"><path
         d="M 392.64001,355.84 V 372 h -10.24002 v -10.23999 h 10.24002"
         style="fill:none;stroke:#000000;stroke-width:0.95999998;stroke-linecap:round;stroke-linejoin:round;stroke-miterlimit:10;stroke-dasharray:none;stroke-opacity:1"
         id="path4903"
         inkscape:connector-curvature="0" /></g><g
       id="g4905"
       transform="rotate(-90,289.79758,271.65088)"><path
         d="M 382.39999,361.76001 392.64001,372 m 0,-10.23999 L 382.39999,372"
         style="fill:none;stroke:#000000;stroke-width:0.95999998;stroke-linecap:round;stroke-linejoin:round;stroke-miterlimit:10;stroke-dasharray:none;stroke-opacity:1"
         id="path4907"
         inkscape:connector-curvature="0" /></g><g
       id="g4909"
       transform="rotate(-90,289.79758,271.65088)"><path
         d="M 395.04001,355.84 V 372 h -2.4"
         style="fill:none;stroke:#000000;stroke-width:0.95999998;stroke-linecap:round;stroke-linejoin:round;stroke-miterlimit:10;stroke-dasharray:none;stroke-opacity:1"
         id="path4911"
         inkscape:connector-curvature="0" /></g><g
       id="g4913"
       transform="rotate(-90,289.79758,271.65088)"><path
         d="m 392.64001,355.84 h 2.4"
         style="fill:none;stroke:#000000;stroke-width:0.95999998;stroke-linecap:round;stroke-linejoin:round;stroke-miterlimit:10;stroke-dasharray:none;stroke-opacity:1"
         id="path4915"
         inkscape:connector-curvature="0" /></g><g
       id="g4917"
       transform="rotate(-90,289.79758,271.65088)"><path
         d="M 299.20001,40.959999 V 100.96 H 239.36"
         style="fill:none;stroke:#000000;stroke-width:0.95999998;stroke-linecap:round;stroke-linejoin:round;stroke-miterlimit:10;stroke-dasharray:none;stroke-opacity:1"
         id="path4919"
         inkscape:connector-curvature="0" /></g><g
       id="g4921"
       transform="rotate(-90,158.91758,109.09088)"><path
         d="M 0,0 5.76,5.76 M -8.8,0 5.76,14.56 M -8.96,8.64 5.76,23.360001 M -8.96,17.6 5.76,32.16 M -8.96,26.4 5.76,41.119999 m -14.72,-5.919998 6.56,6.559997"
         style="fill:none;stroke:#000000;stroke-width:0.95999998;stroke-linecap:round;stroke-linejoin:round;stroke-miterlimit:10;stroke-dasharray:none;stroke-opacity:1"
         id="path4923"
         inkscape:connector-curvature="0" /></g><g
       id="g4925"
       transform="rotate(-90,289.79758,271.65088)"><path
         d="M 239.36,100.96 123.2,217.11999 H 65.919998 L 39.68,243.36"
         style="fill:none;stroke:#000000;stroke-width:0.95999998;stroke-linecap:round;stroke-linejoin:round;stroke-miterlimit:10;stroke-dasharray:none;stroke-opacity:1"
         id="path4927"
         inkscape:connector-curvature="0" /></g><g
       id="g4929"
       transform="rotate(-90,289.79758,271.65088)"><path
         d="m 299.20001,445.60001 v -60 H 239.36"
         style="fill:none;stroke:#000000;stroke-width:0.95999998;stroke-linecap:round;stroke-linejoin:round;stroke-miterlimit:10;stroke-dasharray:none;stroke-opacity:1"
         id="path4931"
         inkscape:connector-curvature="0" /></g><g
       id="g4933"
       transform="rotate(-90,348.59759,-82.669112)"><path
         d="M 0,0 3.68,3.68 M -8.8,0 3.68,12.48 M -11.04,6.72 3.68,21.280001 M -11.04,15.52 3.68,30.24 M -11.04,24.32 3.68,39.040001 m -14.72,-5.920002 8.64,8.639999"
         style="fill:none;stroke:#000000;stroke-width:0.95999998;stroke-linecap:round;stroke-linejoin:round;stroke-miterlimit:10;stroke-dasharray:none;stroke-opacity:1"
         id="path4935"
         inkscape:connector-curvature="0" /></g><g
       id="g4937"
       transform="rotate(-90,289.79758,271.65088)"><path
         d="M 239.36,385.60001 123.2,269.44 H 65.919998 L 39.68,243.36"
         style="fill:none;stroke:#000000;stroke-width:0.95999998;stroke-linecap:round;stroke-linejoin:round;stroke-miterlimit:10;stroke-dasharray:none;stroke-opacity:1"
         id="path4939"
         inkscape:connector-curvature="0" /></g><g
       id="g4941"
       transform="matrix(0.041992,0,0,0.041992,18.1467,561.44847)"><text
         transform="translate(9228.3203,-8896.96)"
         style="font-variant:normal;font-weight:normal;font-size:327.67999268px;font-family:F1;-inkscape-font-specification:F1;writing-mode:lr-tb;fill:#000000;fill-opacity:1;fill-rule:nonzero;stroke:none"
         id="text4945"><tspan
           x="0 219.54559 439.09119 675.02081 851.96796 1091.1743 1307.4431 1526.9888 1746.5343 1835.0079 2067.6606"
           y="0"
           sodipodi:role="line"
           id="tspan4943">ESCLUSAS DE</tspan></text>
</g><g
       id="g4947"
       transform="matrix(0.041992,0,0,0.041992,18.1467,561.44847)"><text
         transform="translate(9251.2002,-8504.4805)"
         style="font-variant:normal;font-weight:normal;font-size:327.67999268px;font-family:F1;-inkscape-font-specification:F1;writing-mode:lr-tb;fill:#000000;fill-opacity:1;fill-rule:nonzero;stroke:none"
         id="text4951"><tspan
           x="0 219.54559 458.75198 547.22559 750.38721 838.86078 1055.1295 1307.4431"
           y="0"
           sodipodi:role="line"
           id="tspan4949">ADITIVOS</tspan></text>
</g><g
       id="g4953"
       transform="matrix(0.041992,0,0,0.041992,18.1467,561.44847)"><text
         transform="translate(9213.1201,-4438.8799)"
         style="font-variant:normal;font-weight:normal;font-size:327.67999268px;font-family:F1;-inkscape-font-specification:F1;writing-mode:lr-tb;fill:#000000;fill-opacity:1;fill-rule:nonzero;stroke:none"
         id="text4957"><tspan
           x="0 203.16159 458.75198 638.97601 861.7984 1081.344 1173.0944 1405.7472 1658.0608 1926.7583 2146.304 2378.9568"
           y="0"
           sodipodi:role="line"
           id="tspan4955">TOLVA ROMANA</tspan></text>
</g><g
       id="g4959"
       transform="matrix(0.041992,0,0,0.041992,18.1467,561.44847)"><text
         transform="translate(9216.96,-12093.6)"
         style="font-variant:normal;font-weight:normal;font-size:327.67999268px;font-family:F1;-inkscape-font-specification:F1;writing-mode:lr-tb;fill:#000000;fill-opacity:1;fill-rule:nonzero;stroke:none"
         id="text4963"><tspan
           x="0 203.16159 452.19839 635.69916 851.96796 1071.5135"
           y="0"
           sodipodi:role="line"
           id="tspan4961">TOLVAS</tspan></text>
</g><g
       id="g4965"
       transform="matrix(0.041992,0,0,0.041992,18.1467,561.44847)"><text
         transform="translate(9209.2803,-11697.4)"
         style="font-variant:normal;font-weight:normal;font-size:327.67999268px;font-family:F1;-inkscape-font-specification:F1;writing-mode:lr-tb;fill:#000000;fill-opacity:1;fill-rule:nonzero;stroke:none"
         id="text4969"><tspan
           x="0 235.9296 491.51999 727.44958 930.61121 1150.1567 1386.0864 1608.9088 1841.5615 2090.5984 2323.2512 2542.7966"
           y="0"
           sodipodi:role="line"
           id="tspan4967">CONTENEDORAS</tspan></text>
</g></g></svg>